# xmcd
#
# Track frame offsets:
#	180
#	23675
#	38894
#	63485
#	84602
#	96502
#	121367
#	186996
#	196972
#	211162
#	224028
#	243181
#
# Disc length: 3559 seconds
#
# Revision: 1
# Processed by: cddbd v1.5.2PL0 Copyright (c) Steve Scherf et al.
# Submitted via: audiograbber 1.83.01
#
DISCID=af0de50c
DTITLE=Sally Burgess - the other me
DYEAR=1996
DGENRE=
TTITLE0=Lonely House
TTITLE1=I didn't know what time it was
TTITLE2=Black Coffee
TTITLE3=Ballad of the sad young men
TTITLE4=So Nice
TTITLE5=Love for sale
TTITLE6=Suite from Porgy and Bess
TTITLE7=Sweet Loraine
TTITLE8=Speak Low
TTITLE9=Guess who I saw today
TTITLE10=How Insensitive
TTITLE11=How long has this been going on
EXTD=
EXTT0=
EXTT1=
EXTT2=
EXTT3=
EXTT4=
EXTT5=
EXTT6=
EXTT7=
EXTT8=
EXTT9=
EXTT10=
EXTT11=
PLAYORDER=
